<?xml version="1.0" standalone="no"?>
<!DOCTYPE svg PUBLIC "-//W3C//DTD SVG 20010904//EN"
 "http://www.w3.org/TR/2001/REC-SVG-20010904/DTD/svg10.dtd">
<svg version="1.0" xmlns="http://www.w3.org/2000/svg"
 width="329.000000pt" height="341.000000pt" viewBox="0 0 329.000000 341.000000"
 preserveAspectRatio="xMidYMid meet">
<metadata>
Created by potrace 1.16, written by Peter Selinger 2001-2019
</metadata>
<g transform="translate(0.000000,341.000000) scale(0.100000,-0.100000)"
fill="#FFF" stroke="none">
<path d="M1387 3109 c-57 -14 -92 -34 -129 -79 -19 -22 -43 -40 -52 -40 -45 0
-105 -52 -131 -113 -9 -21 -32 -53 -52 -70 -48 -42 -73 -99 -73 -168 0 -48 -5
-65 -34 -108 -53 -78 -80 -170 -74 -253 5 -57 1 -79 -19 -129 -29 -73 -33
-189 -9 -258 9 -24 16 -68 16 -98 0 -30 5 -64 11 -76 20 -38 61 -76 94 -87 27
-9 34 -17 38 -46 8 -50 50 -100 108 -129 27 -14 49 -29 49 -34 0 -4 28 -38 63
-74 52 -55 71 -68 121 -82 127 -37 257 24 285 133 13 49 6 696 -8 740 -5 18
-6 43 -2 55 9 26 8 503 -1 512 -3 3 1 27 8 52 16 54 18 182 4 235 -11 39 -50
92 -79 107 -28 15 -94 20 -134 10z m122 -37 c55 -28 71 -70 71 -187 0 -60 -5
-110 -13 -125 -17 -34 -51 -37 -82 -6 -19 19 -25 21 -25 9 0 -20 29 -53 46
-53 7 0 25 -5 39 -12 23 -10 25 -17 25 -72 l0 -60 -33 32 c-76 74 -142 62
-206 -38 -22 -34 -41 -66 -43 -71 -6 -18 -34 1 -61 43 -40 62 -38 118 6 153
29 24 30 26 7 20 -14 -4 -34 -16 -46 -26 -11 -11 -35 -19 -55 -19 -30 -1 -92
-19 -153 -45 -17 -8 -18 -5 -12 41 11 72 43 124 95 151 81 42 182 21 231 -47
22 -31 23 -54 4 -105 -7 -19 -7 -19 13 -2 12 10 24 37 27 61 5 31 17 52 42 77
31 30 41 34 90 34 46 0 52 2 37 13 -21 15 -77 16 -106 1 -12 -6 -34 -23 -49
-36 -26 -25 -48 -24 -48 2 0 35 34 92 69 118 47 32 72 34 117 6 40 -24 46 -10
8 20 -35 27 -93 27 -127 1 -33 -26 -37 -25 -37 9 0 41 40 71 94 71 30 0 37 3
26 10 -8 5 -26 10 -40 10 -27 0 -90 -34 -102 -55 -8 -14 -48 -9 -48 6 0 13 67
63 102 76 48 17 98 15 137 -5z m-275 -126 c-1 -9 2 -16 7 -16 5 0 9 6 9 14 0
22 17 28 40 16 24 -13 26 -55 5 -106 l-14 -35 -33 18 c-21 11 -54 17 -90 17
-32 -1 -58 3 -58 9 0 24 38 69 75 87 44 22 61 21 59 -4z m-64 -328 c0 -36 24
-89 56 -127 l36 -42 -12 -60 c-8 -35 -10 -84 -7 -119 l7 -59 -40 14 c-61 22
-48 -2 17 -30 38 -17 66 -24 84 -20 22 5 29 2 34 -14 3 -11 19 -31 36 -45 l29
-25 -36 -10 c-21 -6 -55 -24 -76 -41 l-38 -31 -41 33 c-33 27 -40 38 -37 60 5
32 -11 38 -19 8 -7 -28 -13 -26 -60 23 -36 37 -58 73 -102 167 -11 25 -11 24
-8 -7 3 -30 1 -32 -52 -52 -66 -24 -71 -20 -71 62 0 69 19 111 61 132 33 18
50 11 70 -27 8 -16 5 -20 -20 -29 -17 -6 -31 -15 -31 -20 0 -4 19 -2 41 6 l42
15 38 -35 c22 -20 50 -35 63 -35 23 0 24 4 28 65 5 99 -12 81 -24 -24 l-3 -24
-32 27 c-27 23 -32 35 -35 79 -3 50 -7 50 -24 0 -5 -15 -10 -13 -35 15 -36 40
-41 108 -10 136 42 38 171 63 171 34z m326 -18 c42 -26 74 -93 74 -153 0 -26
-2 -47 -5 -47 -2 0 -19 9 -37 20 -18 11 -43 20 -55 20 -29 0 -80 -44 -104 -92
-24 -47 -19 -61 8 -23 50 71 65 85 95 85 21 0 40 -10 64 -34 32 -32 34 -37 34
-106 0 -39 -3 -70 -8 -68 -94 41 -93 41 -87 73 l6 30 -21 -24 c-29 -33 -25
-46 19 -66 63 -28 84 -56 89 -122 l4 -58 -23 22 c-13 12 -37 26 -52 32 -16 6
-25 15 -22 21 4 6 -5 7 -24 4 -40 -8 -81 31 -81 77 0 24 -3 30 -16 25 -45 -17
-63 -17 -72 1 -49 93 8 273 105 330 44 26 47 46 3 23 -34 -18 -34 -5 0 24 38
31 62 33 106 6z m-475 -402 c18 -43 72 -102 128 -140 88 -59 99 -74 93 -123
-3 -31 0 -52 12 -69 21 -33 20 -39 -4 -31 -22 7 -26 -5 -9 -22 8 -8 22 -6 51
9 48 25 73 17 114 -39 15 -21 39 -50 52 -64 l23 -27 -35 -6 c-63 -12 -47 -23
34 -23 43 -1 84 -4 90 -8 5 -3 10 -35 10 -70 0 -58 -2 -65 -31 -89 -35 -30
-101 -35 -133 -11 -18 13 -21 12 -37 -14 -30 -50 -137 -86 -193 -65 -35 13
-60 77 -57 144 l1 24 28 -30 c21 -23 40 -32 77 -37 63 -9 67 -3 10 13 -26 7
-59 26 -75 42 -16 15 -33 28 -39 28 -15 0 -31 -35 -31 -69 0 -39 -12 -39 -55
2 -47 42 -58 99 -25 117 33 18 158 16 200 -3 19 -8 61 -36 94 -61 66 -52 108
-59 147 -27 28 22 20 38 -9 22 -36 -19 -68 -12 -116 24 -33 26 -46 43 -46 61
0 56 -27 94 -85 120 -51 22 -59 30 -82 80 -22 48 -24 63 -18 112 7 59 -2 63
-21 9 -16 -46 -39 -45 -84 2 -29 30 -47 41 -69 41 -57 0 -62 -53 -13 -139 25
-42 25 -44 7 -57 -25 -19 -46 1 -75 68 -18 42 -21 65 -18 132 2 45 11 97 19
116 l16 35 17 -37 c20 -42 88 -108 111 -108 22 0 19 7 -26 47 -22 20 -49 54
-60 75 l-20 39 33 13 c81 33 83 33 99 -6z m502 -150 c33 -17 57 -70 57 -125 0
-36 -4 -53 -12 -53 -28 1 -64 30 -89 72 -27 47 -53 57 -84 34 -19 -15 -18 -15
15 -16 31 0 37 -5 51 -39 12 -29 29 -45 60 -62 55 -27 59 -33 59 -91 0 -45
-18 -78 -41 -78 -22 0 -63 37 -94 86 -39 61 -64 79 -120 89 -47 8 -55 17 -55
68 0 95 156 167 253 115z m-551 -78 c10 -17 37 -40 64 -52 39 -20 49 -30 65
-73 11 -27 19 -52 19 -54 0 -9 -86 11 -111 26 -41 24 -90 98 -96 144 -5 36 -4
39 18 39 16 0 30 -10 41 -30z m17 -171 c19 -14 55 -24 107 -30 100 -13 146
-34 156 -73 9 -38 6 -41 -33 -27 -42 15 -157 14 -214 -1 -57 -15 -92 -4 -122
41 -25 36 -34 116 -11 93 17 -17 53 -15 68 3 16 19 15 19 49 -6z m591 -351
c-1 -37 -36 -104 -66 -125 -44 -31 -106 -46 -157 -39 -56 9 -147 64 -126 77
23 15 55 10 74 -11 40 -44 123 -13 145 55 9 28 17 35 38 35 15 0 38 7 52 14
35 20 40 19 40 -6z"/>
<path d="M1699 3086 c-64 -44 -65 -51 -61 -381 1 -90 1 -99 6 -215 3 -63 1
-145 -5 -181 -8 -51 -7 -74 4 -106 9 -27 11 -47 4 -64 -5 -13 -10 -187 -11
-386 l-1 -361 30 -44 c37 -53 119 -98 181 -98 24 0 68 9 98 20 44 17 66 34
118 94 44 52 76 79 105 91 52 20 90 64 105 121 9 31 18 44 34 48 32 8 82 53
101 89 9 19 16 55 15 87 0 30 6 77 14 104 25 88 11 215 -31 280 -10 16 -11 33
-4 71 17 90 -6 178 -73 277 -29 45 -38 68 -38 100 0 69 -18 114 -63 160 -24
24 -51 65 -61 91 -21 55 -74 101 -131 111 -22 4 -42 17 -55 37 -55 76 -207
105 -281 55z m157 -7 c28 -7 60 -26 82 -48 36 -34 36 -35 13 -39 -15 -2 -33 5
-51 23 -31 29 -89 43 -116 26 -16 -9 -12 -10 24 -11 32 0 49 -6 68 -25 15 -15
23 -32 20 -41 -3 -9 -6 -20 -6 -24 0 -5 -16 0 -35 12 -43 25 -96 20 -131 -13
-36 -34 -29 -42 12 -14 45 30 56 31 112 4 30 -15 48 -32 57 -53 22 -53 25 -71
16 -85 -7 -11 -17 -7 -49 19 -47 37 -95 51 -134 37 -41 -13 -34 -26 11 -20 75
10 151 -51 151 -123 0 -19 8 -38 22 -50 21 -19 21 -19 14 1 -17 46 -16 71 4
103 38 61 140 89 213 58 62 -26 117 -111 117 -183 0 -28 2 -27 -52 -4 -24 10
-69 22 -98 26 -35 5 -65 16 -83 31 -16 13 -36 24 -45 24 -11 -1 -8 -6 10 -16
53 -28 49 -111 -9 -175 -19 -21 -38 -39 -42 -39 -3 0 -21 28 -38 63 -59 113
-136 136 -210 62 l-33 -33 -6 24 c-3 13 -3 40 0 59 6 30 12 36 46 45 40 11 60
34 60 67 -1 14 -3 13 -14 -6 -13 -24 -37 -39 -63 -40 -20 -2 -33 60 -33 163 0
119 16 161 70 188 41 21 65 22 126 7z m132 -131 l11 -23 0 23 c1 26 18 28 64
8 38 -16 62 -40 76 -79 l11 -28 -43 6 c-31 5 -57 1 -97 -14 -29 -11 -54 -20
-55 -18 -9 14 -35 92 -35 105 0 42 50 57 68 20z m195 -332 c66 -24 80 -43 75
-104 -4 -43 -11 -59 -36 -85 l-32 -32 0 37 c0 56 -17 54 -24 -3 -7 -48 -39
-99 -64 -99 -5 0 -14 25 -21 55 -7 30 -17 55 -22 55 -6 0 -8 -8 -5 -17 3 -10
8 -36 12 -58 12 -72 29 -76 96 -24 39 30 76 36 110 18 15 -8 19 -8 13 1 -4 6
-19 16 -33 21 l-26 10 32 31 c29 30 33 31 57 18 38 -20 59 -66 59 -130 1 -88
-2 -92 -68 -66 -47 17 -56 25 -56 46 -1 19 -9 8 -34 -43 -32 -67 -74 -119
-110 -139 -15 -8 -23 -6 -37 13 l-18 24 5 -35 c4 -32 1 -38 -36 -69 l-41 -33
-22 20 c-28 25 -73 48 -116 57 l-33 7 36 30 c20 16 36 38 36 49 0 22 0 22 36
9 22 -9 40 -6 95 16 38 15 69 31 69 36 0 11 0 11 -49 -7 l-42 -15 6 53 c5 37
2 75 -10 121 l-17 67 39 42 c25 27 44 60 51 90 12 46 13 47 50 47 20 -1 54 -7
75 -14z m-327 -28 c23 -24 25 -29 9 -23 -11 4 -29 9 -40 12 -17 3 -16 1 5 -14
96 -67 144 -164 138 -275 -5 -85 -15 -98 -63 -75 -34 16 -36 16 -41 -1 -25
-75 -57 -111 -90 -98 -9 4 -23 -2 -32 -13 -10 -10 -30 -27 -46 -37 l-29 -18 5
52 c6 59 24 84 81 113 40 21 47 43 22 75 -15 18 -16 18 -11 -11 5 -28 2 -32
-41 -53 -52 -26 -63 -20 -63 33 1 56 19 110 45 133 42 36 72 29 127 -30 53
-58 64 -53 19 9 -54 75 -91 88 -148 53 l-33 -20 0 38 c0 97 57 182 122 182 26
0 42 -8 64 -32z m445 -369 c27 -12 49 -27 49 -34 0 -20 -60 -104 -91 -126 -16
-11 -27 -25 -23 -30 9 -15 87 46 114 90 14 23 27 41 31 41 12 0 39 -103 39
-149 0 -98 -54 -210 -94 -195 -22 8 -20 24 9 66 51 75 42 138 -19 138 -26 0
-39 -8 -65 -40 -21 -27 -40 -40 -56 -40 -21 0 -26 6 -31 40 -10 61 -24 48 -24
-22 0 -45 -7 -78 -24 -115 -21 -45 -31 -55 -76 -74 -55 -24 -80 -57 -80 -108
0 -24 -9 -37 -46 -66 -49 -36 -75 -42 -118 -25 -21 7 -26 6 -26 -5 0 -19 31
-35 67 -35 28 0 49 11 136 74 64 47 140 62 216 44 l56 -13 -1 -38 c-2 -44 -39
-90 -86 -106 l-30 -11 7 38 c8 50 -12 80 -43 63 -12 -6 -22 -15 -22 -20 0 -4
-27 -20 -60 -36 -33 -16 -58 -30 -56 -33 11 -10 108 32 125 54 28 35 34 30 29
-27 -9 -89 -68 -141 -138 -120 -45 13 -130 76 -130 97 0 11 -6 10 -29 -7 -23
-17 -38 -21 -68 -16 -56 9 -83 45 -83 110 0 29 4 57 8 64 5 7 42 14 92 17 47
3 87 6 90 6 3 0 -2 5 -10 10 -8 5 -34 10 -57 10 l-42 0 44 46 c25 25 45 50 45
55 0 13 61 49 83 49 10 0 31 -10 48 -22 28 -21 30 -21 46 -5 16 16 16 17 -10
17 -15 0 -27 1 -27 3 0 1 9 21 20 42 15 29 19 50 15 76 -7 40 -1 47 115 131
25 18 63 61 85 95 22 35 41 63 43 63 2 0 26 -10 53 -21z m-416 -176 c72 -36
106 -93 86 -145 -8 -20 -19 -28 -53 -33 -63 -11 -93 -30 -127 -79 -52 -75
-110 -108 -125 -70 -9 25 -7 83 4 105 6 10 28 28 50 39 26 13 47 34 60 60 17
34 25 40 53 40 30 1 31 1 13 15 -33 25 -54 18 -75 -24 -21 -40 -83 -87 -101
-76 -18 11 -11 98 10 133 37 60 124 75 205 35z m455 -77 c0 -75 -105 -176
-183 -176 -31 0 -31 -3 -2 80 9 27 19 36 44 41 35 7 77 42 87 71 3 11 15 18
30 18 21 0 24 -5 24 -34z m50 -185 c0 -45 -34 -100 -73 -119 -24 -11 -35 -11
-77 3 -62 21 -151 21 -207 1 -40 -14 -43 -14 -43 3 0 28 37 68 73 79 17 6 59
13 92 17 33 4 77 16 98 28 29 16 40 18 49 9 17 -17 53 -15 68 3 18 22 20 19
20 -24z m-649 -338 c29 -4 38 -11 48 -39 22 -61 109 -95 144 -56 21 23 79 19
70 -4 -15 -40 -136 -72 -202 -54 -50 13 -119 72 -127 109 -3 14 -8 35 -11 45
-4 16 -2 18 18 12 13 -4 40 -10 60 -13z"/>
<path d="M509 2578 c-6 -24 -16 -46 -22 -50 -6 -4 -21 -42 -32 -85 -20 -78
-20 -78 -55 -81 l-35 -3 -29 -137 c-55 -263 -58 -282 -52 -397 13 -278 127
-544 337 -784 31 -36 110 -121 176 -188 183 -188 235 -293 235 -478 1 -75 -4
-115 -20 -160 -24 -71 -20 -86 6 -24 78 182 45 401 -86 565 -22 27 -95 105
-162 174 -254 258 -377 466 -432 730 -37 175 -18 425 43 567 11 26 24 63 28
82 l7 35 21 -21 c37 -37 45 -90 37 -261 -6 -131 -4 -167 10 -214 15 -52 31
-77 41 -66 3 2 -1 20 -7 39 -7 21 -12 111 -12 239 -1 192 -2 208 -23 247 l-22
42 24 53 c14 29 25 61 25 70 0 55 62 10 79 -57 15 -61 14 -112 -9 -250 -29
-176 -24 -292 16 -353 23 -34 26 -22 9 28 -21 60 -19 185 6 320 16 84 20 136
15 193 -6 86 0 93 44 49 40 -41 46 -96 26 -270 -9 -81 -16 -165 -16 -186 0
-59 20 -162 35 -183 12 -16 13 -13 5 22 -14 59 -11 216 5 330 26 180 17 259
-36 319 -16 19 -29 43 -29 55 0 62 -62 131 -117 131 -18 0 -25 -9 -34 -42z"/>
<path d="M2650 2598 c-41 -27 -70 -80 -70 -124 0 -20 -6 -34 -15 -38 -26 -9
-55 -86 -55 -144 0 -29 10 -114 21 -190 20 -131 22 -255 4 -332 -3 -15 3 -9
14 15 33 66 36 148 12 317 -25 181 -26 215 -6 265 15 39 48 68 65 58 5 -3 6
-29 3 -58 -3 -34 4 -108 22 -212 30 -175 30 -276 1 -332 -13 -26 -13 -31 -2
-27 22 8 45 77 52 152 4 49 -2 108 -20 216 -14 82 -26 168 -26 190 0 51 31
121 60 136 26 14 24 16 40 -43 7 -26 22 -59 32 -72 19 -25 19 -25 0 -52 -33
-48 -37 -73 -37 -278 0 -110 -4 -215 -9 -232 -14 -53 10 -40 28 15 24 73 28
127 18 254 -11 137 -2 202 33 237 l24 24 6 -29 c4 -16 17 -58 30 -94 50 -142
70 -312 54 -456 -24 -218 -94 -398 -227 -583 -37 -52 -135 -166 -219 -253
-226 -235 -284 -341 -284 -519 0 -92 4 -120 28 -187 22 -59 26 -46 8 24 -32
123 -15 256 49 381 39 77 77 124 223 274 272 279 395 494 443 777 29 168 26
242 -20 474 -22 111 -40 203 -40 205 0 2 -15 3 -34 3 -34 0 -34 0 -51 73 -10
41 -25 79 -36 89 -10 9 -22 33 -27 55 -10 48 -41 55 -92 21z"/>
<path d="M510 1747 c-13 -7 -31 -24 -39 -38 -14 -25 -12 -30 41 -115 30 -49
67 -109 81 -134 14 -25 60 -83 102 -130 41 -47 89 -112 105 -145 19 -38 28
-49 24 -30 -10 47 -52 118 -106 182 -115 135 -133 177 -94 216 14 14 26 37 26
51 0 25 -53 96 -72 96 -6 0 4 -16 21 -35 17 -20 31 -44 31 -55 0 -19 -34 -50
-55 -50 -11 0 -85 111 -85 128 0 18 42 42 75 42 38 0 106 -31 155 -70 21 -17
70 -77 109 -134 87 -129 134 -171 258 -231 198 -96 302 -185 368 -317 56 -113
69 -194 70 -428 0 -113 -3 -232 -7 -265 -4 -34 -3 -51 1 -40 38 91 49 466 18
605 -27 120 -78 213 -168 301 -66 66 -96 86 -210 144 -177 90 -219 122 -287
225 -76 114 -146 188 -207 216 -55 26 -117 30 -155 11z"/>
<path d="M2592 1739 c-68 -34 -139 -105 -195 -196 -28 -47 -71 -103 -96 -124
-24 -21 -103 -68 -176 -104 -213 -105 -299 -183 -365 -328 -16 -36 -37 -105
-45 -153 -18 -101 -20 -342 -4 -447 11 -74 48 -202 56 -194 2 3 -3 29 -13 59
-13 40 -18 103 -21 258 -7 303 19 432 115 558 62 82 138 138 285 213 180 92
200 107 273 220 75 115 129 170 202 206 55 27 117 28 147 3 22 -19 19 -32 -26
-93 -44 -62 -58 -68 -90 -36 -24 24 -19 51 20 93 25 27 25 28 3 17 -25 -13
-62 -67 -62 -91 0 -8 14 -29 31 -46 l31 -33 -21 -44 c-12 -25 -51 -78 -87
-118 -63 -72 -125 -176 -123 -208 0 -9 11 7 23 34 13 28 62 94 110 148 47 54
96 117 107 140 12 23 46 79 76 123 62 92 63 112 10 145 -42 25 -111 25 -165
-2z"/>
</g>
</svg>
